{"title":"The.Only.Way.Is.Essex.S08E10.PDTV.x264-W33D","uid":8341749,"size":314394858,"categoryP":"video","categoryS":"tv_shows","magnet":"?xt=urn:btih:791155d2a95326ff70157aecde6b98b5dd04c9b9&amp;dn=The.Only.Way.Is.Essex.S08E10.PDTV.x264-W33D&amp;tr=udp%3A%2F%2Ftracker.openbittorrent.com%3A80&amp;tr=udp%3A%2F%2Fopen.demonii.com%3A1337&amp;tr=udp%3A%2F%2Ftracker.coppersurfer.tk%3A6969&amp;tr=udp%3A%2F%2Fexodus.desync.com%3A6969","seeders":1,"leechers":0,"uploader":"shane1989","files":1,"time":1365109754,"description":"Season 8 Episode 10 of 12\nReality programme following a group of people in Essex, with each episode filmed just a few days before transmission\nThe Only Way Is Essex is a British BAFTA award-winning reality television show based in Essex, England.\nIt shows &quot;real people in modified situations, saying unscripted lines but in a structured way.&quot;\n\n\n\n\nGeneral\nComplete name                            : The.Only.Way.Is.Essex.S08E10.PDTV.x264-W33D.mp4\nFormat                                   : MPEG-4\nFormat profile                           : Base Media\nCodec ID                                 : isom\nFile size                                : 300 MiB\nDuration                                 : 33mn 7s\nOverall bit rate mode                    : Variable\nOverall bit rate                         : 1 266 Kbps\n\nVideo\nID                                       : 1\nFormat                                   : AVC\nFormat/Info                              : Advanced Video Codec\nFormat profile                           : &lt;a class=&quot;__cf_email__&quot; href=&quot;/cdn-cgi/l/email-protection&quot; data-cfemail=&quot;81c9e8e6e9c1cdb2afb0&quot;&gt;[email&amp;#160;protected]&lt;/a&gt;&lt;script cf-hash='f9e31' type=&quot;text/javascript&quot;&gt;\n/* &lt;![CDATA[ */!function(){try{var t=&quot;currentScript&quot;in document?document.currentScript:function(){for(var t=document.getElementsByTagName(&quot;script&quot;),e=t.length;e--;)if(t[e].getAttribute(&quot;cf-hash&quot;))return t[e]}();if(t&amp;&amp;t.previousSibling){var e,r,n,i,c=t.previousSibling,a=c.getAttribute(&quot;data-cfemail&quot;);if(a){for(e=&quot;&quot;,r=parseInt(a.substr(0,2),16),n=2;a.length-n;n+=2)i=parseInt(a.substr(n,2),16)^r,e+=String.fromCharCode(i);e=document.createTextNode(e),c.parentNode.replaceChild(e,c)}}}catch(u){}}();/* ]]&gt; */&lt;/script&gt;\nFormat settings, CABAC                   : Yes\nFormat settings, ReFrames                : 4 frames\nCodec ID                                 : avc1\nCodec ID/Info                            : Advanced Video Coding\nDuration                                 : 33mn 6s\nBit rate                                 : 1 124 Kbps\nMaximum bit rate                         : 5 361 Kbps\nWidth                                    : 704 pixels\nHeight                                   : 400 pixels\nDisplay aspect ratio                     : 16:9\nFrame rate mode                          : Constant\nFrame rate                               : 25.000 fps\nColor space                              : YUV\nChroma subsampling                       : 4:2:0\nBit depth                                : 8 bits\nScan type                                : Progressive\nBits/(Pixel*Frame)                       : 0.160\nStream size                              : 266 MiB (89%)\nTitle                                    : Only.Way.Is.Essex.S08E10.264#trackID=1:fps=&lt;a class=&quot;__cf_email__&quot; href=&quot;/cdn-cgi/l/email-protection&quot; data-cfemail=&quot;2d1f186d6a7d6c6e1d0318031c0069687b005f485b191f151e&quot;&gt;[email&amp;#160;protected]&lt;/a&gt;&lt;script cf-hash='f9e31' type=&quot;text/javascript&quot;&gt;\n/* &lt;![CDATA[ */!function(){try{var t=&quot;currentScript&quot;in document?document.currentScript:function(){for(var t=document.getElementsByTagName(&quot;script&quot;),e=t.length;e--;)if(t[e].getAttribute(&quot;cf-hash&quot;))return t[e]}();if(t&amp;&amp;t.previousSibling){var e,r,n,i,c=t.previousSibling,a=c.getAttribute(&quot;data-cfemail&quot;);if(a){for(e=&quot;&quot;,r=parseInt(a.substr(0,2),16),n=2;a.length-n;n+=2)i=parseInt(a.substr(n,2),16)^r,e+=String.fromCharCode(i);e=document.createTextNode(e),c.parentNode.replaceChild(e,c)}}}catch(u){}}();/* ]]&gt; */&lt;/script&gt;\nWriting library                          : x264 core 130 r2273 b3065e6\n\n\nAudio\nID                                       : 2\nFormat                                   : AAC\nFormat/Info                              : Advanced Audio Codec\nFormat profile                           : LC\nCodec ID                                 : 40\nDuration                                 : 33mn 7s\nBit rate mode                            : Variable\nBit rate                                 : 138 Kbps\nMaximum bit rate                         : 150 Kbps\nChannel(s)                               : 2 channels\nChannel positions                        : Front: L R\nSampling rate                            : 48.0 KHz\nCompression mode                         : Lossy\nStream size                              : 32.7 MiB (11%)","torrent":{"xt":"urn:btih:791155d2a95326ff70157aecde6b98b5dd04c9b9","amp;dn":"The.Only.Way.Is.Essex.S08E10.PDTV.x264-W33D","amp;tr":["udp%3A%2F%2Ftracker.openbittorrent.com%3A80","udp%3A%2F%2Fopen.demonii.com%3A1337","udp%3A%2F%2Ftracker.coppersurfer.tk%3A6969","udp%3A%2F%2Fexodus.desync.com%3A6969"],"infoHash":"791155d2a95326ff70157aecde6b98b5dd04c9b9","infoHashBuffer":{"type":"Buffer","data":[121,17,85,210,169,83,38,255,112,21,122,236,222,107,152,181,221,4,201,185]},"announce":[],"urlList":[]}}